# xmcd CD database file
#
# Track frame offsets:
#	150
#	10615
#	33641
#	51678
#	73925
#	80257
#	88040
#	107831
#	114463
#	137076
#
# Disc length: 1957 seconds
#
# Revision: 0
# Processed by: cddbd v1.5.2PL0 Copyright (c) Steve Scherf et al.
# Submitted via: CDex 1.70beta2
#
DISCID=8807a30a
DTITLE=Steven Lugerner, Darren Johnston, Myra Melford, Matt Wilson - For We Have Heard
DYEAR=2013
DGENRE=Jazz
TTITLE0=Us And Our Fathers 
TTITLE1=And When A Long Blast Is Sounded 
TTITLE2=Drove Out Before Us
TTITLE3=Be Strong And Resolute 
TTITLE4=Before Our Very Eyes
TTITLE5=Through Whose Midst We Passed 
TTITLE6=For We Have Heard 
TTITLE7=Up From The Land 
TTITLE8=All Those Kings
TTITLE9=Our Children In Time 
EXTD=YEAR: 2013
EXTT0=
EXTT1=
EXTT2=
EXTT3=
EXTT4=
EXTT5=
EXTT6=
EXTT7=
EXTT8=
EXTT9=
PLAYORDER=
